<?xml version="1.0" encoding="UTF-8"?>
<svg id="Layer_1" data-name="Layer 1" xmlns="http://www.w3.org/2000/svg" xmlns:xlink="http://www.w3.org/1999/xlink" viewBox="0 0 500 500">
  <defs>
    <style>
      .cls-1 {
        fill: #002a72;
      }

      .cls-1, .cls-2 {
        fill-rule: evenodd;
      }

      .cls-3 {
        fill: url(#linear-gradient);
      }

      .cls-2 {
        fill: #0069bd;
      }
    </style>
    <linearGradient id="linear-gradient" x1="122.74" y1="233.83" x2="377.06" y2="233.83" gradientUnits="userSpaceOnUse">
      <stop offset="0" stop-color="#0289cc"/>
      <stop offset="1" stop-color="#0c3071"/>
    </linearGradient>
  </defs>
  <path class="cls-1" d="m184.18,185.75c2.86-.44,2.34-.11,4.26-4.96,1.71-4.24.04-2.92,4.29-4.55,3.73-1.46,9.04-4.63,12.01-5.72,1.11,2.11,1.37,13.43,2.39,16.95l2.21-1.07c1.32-.64,1.11-.36,1.44-2.15.6-3.88,2.52-16.17,3.24-18.4,2.81-1.44,10.42-4.95,11.99-7,.7-1.02,1.69-2.87.25-3.54-3.56-1.53-9.42,2.42-13.65,4.64-1.73.84-1.35.57-3.13-.28-1.91-.95-15.47-8.15-16.47-8.09-.38.1-2.7,1.31-3.12,1.51.88,1.11,1.97,2.12,3.06,3.14l6.22,5.96c1.02.87,2.21,2.09,3.09,3.03-2.04.9-4.02,1.94-6.09,2.95-10.25,4.96-6.44,5.59-12.33,4-3.25-.9-4.65-2.02-6.2.61,5.08,3.44,7.06,7.18,6.54,12.98h0Z"/>
  <g>
    <path class="cls-2" d="m305.77,180.82l30.34-17.77-36.46,36.46h-58.96s-21.81,2.31-21,21.34c0,0-.69,18.34,20.31,22.61-6.6-1.34-12.54-3.55-17.72-8.09-12.03-10.56-16.37-30.14-8.05-44.08,1.91-3.2,4.37-6.09,7.27-8.44,14.44-11.71,34.38-8.69,51.59-8.97,6.05-.1,12.09-.08,18.14-.12,3.87-.02,7.76.05,11.63-.09,1.76-.07,3.51-.24,5.27-.28.43,0,4.69.42,4.71.37-1.7,2.61-4.85,4.82-7.1,7.04Z"/>
    <path class="cls-1" d="m274.21,219.2h-26.92s-8.46-2.31-9.23-8.31c0,0-.5-8.58,6.88-11.38h-4.88s-20.61,2.44-20.82,20.66c0,0-1.14,18.34,20.32,23.3l13.04-13.5s.97-.3.22.61l-19.31,29.75s-.32.72.71.23l40-41.35Z"/>
  </g>
  <g>
    <path class="cls-2" d="m224.84,289.11l-30.34,17.77,36.46-36.46h58.96s21.81-2.31,21-21.34c0,0,.69-18.34-20.31-22.61,6.6,1.34,12.54,3.55,17.72,8.09,12.03,10.56,16.37,30.14,8.05,44.08-1.91,3.2-4.37,6.09-7.27,8.44-14.44,11.71-34.38,8.69-51.59,8.97-6.05.1-12.09.08-18.14.12-3.87.02-7.76-.05-11.63.09-1.76.07-3.51.24-5.27.28-.43,0-4.69-.42-4.71-.37,1.7-2.61,4.85-4.82,7.1-7.04Z"/>
    <path class="cls-1" d="m256.41,250.73h26.92s8.46,2.31,9.23,8.31c0,0,.5,8.58-6.88,11.38h4.88s20.61-2.44,20.82-20.66c0,0,1.14-18.34-20.32-23.3l-13.04,13.5s-.97.3-.22-.61l19.31-29.75s.32-.72-.71-.23l-40,41.35Z"/>
  </g>
  <path class="cls-3" d="m288.42,99.63c36.99,13.8,59.52,52.57,65.92,89.95,0,0,11.77,53.3-27,100.37,0,0-44.3,62.07-125.06,24.69,0,0-47.76-20.07-50.99-74.07,0,0-1.85-35.53,29.07-61.84,0,0-67.84,20.77-56.3,95.99,0,0,4.61,65.53,83.53,88.61,58.99,17.25,124.05-14.85,152.79-67.72,27.33-50.27,20.62-114.41-16.89-157.71-14.77-17.05-33.87-30.5-55.08-38.28Z"/>
</svg>